<?xml version="1.0" encoding="UTF-8" standalone="no"?>
<svg
   xmlns:dc="http://purl.org/dc/elements/1.1/"
   xmlns:cc="http://creativecommons.org/ns#"
   xmlns:rdf="http://www.w3.org/1999/02/22-rdf-syntax-ns#"
   xmlns:svg="http://www.w3.org/2000/svg"
   xmlns="http://www.w3.org/2000/svg"
   width="128.0px"
   height="128.0px"
   viewBox="0 0 128.0 128.0"
   version="1.1"
   id="SVGRoot">
  <defs
     id="defs1066" />
  <metadata
     id="metadata1069">
    <rdf:RDF>
      <cc:Work
         rdf:about="">
        <dc:format>image/svg+xml</dc:format>
        <dc:type
           rdf:resource="http://purl.org/dc/dcmitype/StillImage" />
        <dc:title></dc:title>
      </cc:Work>
    </rdf:RDF>
  </metadata>
  <g
     id="layer1">
    <circle
       style="fill:#2f4f4f;stroke-width:0.941425;stroke:#2f4f4f"
       id="path1088"
       d="M 66.44276,5.0086996 A 60,60.008652 0 0 1 124.98266,66.442479 60,60.008652 0 0 1 63.558218,124.99132 60,60.008652 0 0 1 5.0173136,63.558499 60,60.008652 0 0 1 66.440805,5.0086526 L 65,65 Z" />
    <g
       id="g1092"
       style="fill:#008080">
      <path
         id="path1104"
         style="fill:#008080;fill-rule:evenodd;stroke:none;stroke-width:0.961838;stroke-linejoin:round"
         d="M 19.556506,53.303148 100.63195,31.192907 V 97.317564 L 19.556506,68.675301 Z"
         points="100.63195,31.192907 100.63195,97.317564 19.556506,68.675301 19.556506,53.303148 " />
      <path
         id="path1094"
         style="fill:#008080;fill-rule:evenodd;stroke:none;stroke-width:0.961838;stroke-linejoin:round"
         d="m 12.459842,53.735918 v 16.272865 l 7.096664,-1.333482 V 53.303148 Z"
         points="12.459842,70.008783 19.556506,68.675301 19.556506,53.303148 12.459842,53.735918 " />
      <path
         id="path1102"
         style="fill:#008080;fill-rule:evenodd;stroke:none;stroke-width:0.961838;stroke-linejoin:round"
         d="M 12.459842,70.008783 88.119157,113.38017 100.63195,97.317564 19.556506,68.675301 Z"
         points="88.119158,113.38017 100.63195,97.317564 19.556506,68.675301 12.459842,70.008783 " />
      <path
         id="path1096"
         style="fill:#008080;fill-rule:evenodd;stroke:none;stroke-width:0.961838;stroke-linejoin:round"
         d="M 12.459842,53.735918 88.119157,26.591561 100.63195,31.192907 19.556506,53.303148 Z"
         points="88.119158,26.591561 100.63195,31.192907 19.556506,53.303148 12.459842,53.735918 " />
      <path
         id="path1100"
         style="fill:#008080;fill-rule:evenodd;stroke:none;stroke-width:0.961838;stroke-linejoin:round"
         d="M 88.119157,26.591561 V 113.38017 L 100.63195,97.317564 V 31.192907 Z"
         points="88.119158,113.38017 100.63195,97.317564 100.63195,31.192907 88.119158,26.591561 " />
      <path
         id="path1098"
         style="fill:#008080;fill-rule:evenodd;stroke:none;stroke-width:0.961838;stroke-linejoin:round"
         d="M 12.459842,53.735918 88.119157,26.591561 V 113.38017 L 12.459842,70.008783 Z"
         points="88.119158,26.591561 88.119158,113.38017 12.459842,70.008783 12.459842,53.735918 " />
    </g>
    <text
       xml:space="preserve"
       style="font-size:46.5481px;line-height:1.25;font-family:sans-serif;letter-spacing:0px;fill:#48d1cc;stroke-width:1.1637"
       x="14.554654"
       y="86.398689"
       id="text1136"
       transform="scale(1.1638906,0.85918729)"><tspan
         id="tspan1134"
         x="14.554654"
         y="86.398689"
         style="font-style:normal;font-variant:normal;font-weight:normal;font-stretch:normal;font-size:55.5341px;font-family:FreeMono;-inkscape-font-specification:'FreeMono, Normal';font-variant-ligatures:normal;font-variant-caps:normal;font-variant-numeric:normal;font-variant-east-asian:normal;fill:#48d1cc;stroke-width:1.1637">qT</tspan></text>
    <text
       xml:space="preserve"
       style="font-style:normal;font-variant:normal;font-weight:normal;font-stretch:normal;font-size:49.582px;line-height:1.25;font-family:FreeMono;-inkscape-font-specification:'FreeMono, Normal';font-variant-ligatures:normal;font-variant-caps:normal;font-variant-numeric:normal;font-variant-east-asian:normal;letter-spacing:0px;fill:#48d1cc;stroke-width:1.23953"
       x="73.769676"
       y="-72.24044"
       id="text1140"
       transform="scale(0.8515836,-1.1742828)"><tspan
         id="tspan1138"
         x="73.769676"
         y="-72.24044"
         style="font-style:normal;font-variant:normal;font-weight:normal;font-stretch:normal;font-size:49.582px;font-family:FreeMono;-inkscape-font-specification:'FreeMono, Normal';font-variant-ligatures:normal;font-variant-caps:normal;font-variant-numeric:normal;font-variant-east-asian:normal;stroke-width:1.23953">_</tspan></text>
  </g>
</svg>
